<?xml version="1.0" encoding="UTF-8"?>
<svg viewBox="0 0 24 24" fill="currentColor" xmlns="http://www.w3.org/2000/svg" role="img" aria-label="GitHub Copilot"><title>GitHub Copilot</title><path fill="#A371F7" d="M12 3c-4.97 0-9 3.8-9 8.5 0 2.37 1.05 4.52 2.76 6.06l-.26 2.04c-.07.56.41 1.03.96.95l2.42-.37c.97.45 2.02.72 3.12.72s2.15-.27 3.12-.72l2.42.37c.55.08 1.03-.39.96-.95l-.26-2.04C20.95 16.02 22 13.87 22 11.5 22 6.8 17.97 3 12 3zm0 2c4.07 0 7.35 3.03 7.35 6.75 0 1.95-.88 3.7-2.3 4.93l-.47.4.22 1.7-1.46-.22-.57.27c-.85.4-1.78.62-2.77.62s-1.92-.22-2.77-.62l-.57-.27-1.46.22.22-1.7-.47-.4C8.53 15.45 7.65 13.7 7.65 11.75 7.65 8.03 10.93 5 12 5zm-3.5 5.5a1.5 1.5 0 1 0 0 3 1.5 1.5 0 0 0 0-3zm7 0a1.5 1.5 0 1 0 0 3 1.5 1.5 0 0 0 0-3z"></path></svg>
